IKResults
version=1
nRows=4
nColumns=63
inDegrees=yes

Units are S.I. units (second, meters, Newtons, ...)
If the header above contains a line with 'inDegrees', this indicates whether rotational values are in degrees (yes) or radians (no).

endheader
time	pelvis_tilt	pelvis_list	pelvis_rotation	pelvis_tx	pelvis_ty	pelvis_tz	hip_flexion_r	hip_adduction_r	hip_rotation_r	knee_angle_r	knee_angle_r_beta	ankle_angle_r	subtalar_angle_r	mtp_angle_r	hip_flexion_l	hip_adduction_l	hip_rotation_l	knee_angle_l	knee_angle_l_beta	ankle_angle_l	subtalar_angle_l	mtp_angle_l	L5_S1_Flex_Ext	L5_S1_Lat_Bending	L5_S1_axial_rotation	L4_L5_Flex_Ext	L4_L5_Lat_Bending	L4_L5_axial_rotation	L3_L4_Flex_Ext	L3_L4_Lat_Bending	L3_L4_axial_rotation	L2_L3_Flex_Ext	L2_L3_Lat_Bending	L2_L3_axial_rotation	L1_L2_Flex_Ext	L1_L2_Lat_Bending	L1_L2_axial_rotation	L1_T12_Flex_Ext	L1_T12_Lat_Bending	L1_T12_axial_rotation	Abs_r3	Abs_r2	Abs_r1	Abs_t1	Abs_t2	neck_flexion	neck_bending	neck_rotation	arm_flex_r	arm_add_r	arm_rot_r	elbow_flex_r	pro_sup_r	wrist_flex_r	wrist_dev_r	arm_flex_l	arm_add_l	arm_rot_l	elbow_flex_l	pro_sup_l	wrist_flex_l	wrist_dev_l
      6.03333333	    114.21217291	     18.14484319	      2.77573595	     -0.82558010	      0.18174841	     -0.05090376	     -5.05406871	    -25.55451454	     13.74574388	     53.90404607	      0.94080308	    -13.52998209	    -19.39851572	      0.00000000	     -6.11812675	    -10.88996636	    -37.46805812	     60.47060528	      1.05541116	    -32.19536481	    -19.40076695	      0.00000000	     -7.20357045	     -1.22551404	     -0.45742444	    -13.37775069	     -1.62993367	     -0.48601347	    -11.83474590	     -2.97971483	     -0.48601347	     -8.23296067	     -2.97971483	     -0.40024638	     -6.68923552	     -2.49906823	     -0.37165736	     -4.11612016	     -1.89832124	     -0.34306833	    -51.45438340	    -13.86325990	     -2.54405750	      0.00000000	      0.00000000	    -17.96915509	      4.61517142	     20.13373642	      0.00000000	    -90.00000009	      0.00000000	     74.99913571	     89.99559364	      0.00000000	      0.00000000	    -50.22103370	    -74.15775211	    -49.94679098	     56.31422660	     89.99559364	      0.00000000	      0.00000000
      6.06666667	    114.82047017	     18.07075130	      3.11133239	     -0.82716715	      0.17948477	     -0.05153143	     -5.80895254	    -24.31173170	     14.72183744	     54.55649062	      0.95219039	    -13.91633512	    -19.22885919	      0.00000000	     -6.85811661	    -11.37402059	    -37.76120267	     60.38422485	      1.05390354	    -32.24591622	    -19.44746850	      0.00000000	     -7.37043260	     -1.18298386	     -0.32687943	    -13.68763037	     -1.57336853	     -0.34730940	    -12.10888371	     -2.87630695	     -0.34730940	     -8.42366741	     -2.87630695	     -0.28601950	     -6.84418371	     -2.41234068	     -0.26558954	     -4.21146519	     -1.83244199	     -0.24515957	    -52.64626299	    -13.38214998	     -1.81800533	      0.00000000	      0.00000000	    -17.03290336	      3.95365722	     18.60991691	      0.00000000	    -90.00000009	      0.00000000	     74.99917635	     89.99559364	      0.00000000	      0.00000000	    -57.22283706	    -74.97175605	    -54.75356653	     56.65296315	     89.99559364	      0.00000000	      0.00000000
      6.10000000	    115.08786920	     17.98668758	      3.53933659	     -0.82840465	      0.17819469	     -0.05185215	     -6.38153451	    -23.12676724	     15.61377760	     54.93107586	      0.95872814	    -14.35289189	    -18.86234954	      0.00000000	     -7.25624849	    -11.86833034	    -37.96533117	     60.34966349	      1.05330033	    -32.27115491	    -19.47947880	      0.00000000	     -7.45059230	     -1.15920464	     -0.26887891	    -13.83649497	     -1.54174217	     -0.28568384	    -12.24057810	     -2.81849015	     -0.28568384	     -8.51528194	     -2.81849015	     -0.23526904	     -6.91862001	     -2.36385009	     -0.21846411	     -4.25726844	     -1.79560798	     -0.20165918	    -53.21883577	    -13.11315468	     -1.49542382	      0.00000000	      0.00000000	    -16.00836416	      2.96036621	     17.47321791	      0.00000000	    -90.00000009	      0.00000000	     74.99920984	     89.99559364	      0.00000000	      0.00000000	    -63.59266721	    -75.24950502	    -59.60121455	     57.11680830	     89.99559364	      0.00000000	      0.00000000
      6.13333333	    114.78250798	     17.93956996	      4.09860368	     -0.82877746	      0.17794640	     -0.05196074	     -6.43187522	    -22.17070780	     16.37758586	     55.14919956	      0.96253511	    -14.54579759	    -18.02555453	      0.00000000	     -7.02318104	    -12.28767381	    -38.02377715	     60.43692010	      1.05482325	    -32.20246850	    -19.49600473	      0.00000000	     -7.40562953	     -1.16578635	     -0.29588711	    -13.75299461	     -1.55049585	     -0.31438005	    -12.16670876	     -2.83449294	     -0.31438005	     -8.46389400	     -2.83449294	     -0.25890122	     -6.87686759	     -2.37727153	     -0.24040827	     -4.23157672	     -1.80580306	     -0.22191533	    -52.89767120	    -13.18760840	     -1.64563532	      0.00000000	      0.00000000	    -15.19484272	      1.84318760	     16.70667085	      0.00000000	    -90.00000009	      0.00000000	     74.99924289	     89.99559364	      0.00000000	      0.00000000	    -69.56875542	    -74.96046201	    -64.54185624	     57.71485994	     89.99559364	      0.00000000	      0.00000000
